<?xml version="1.0" encoding="UTF-8"?>
<svg width="1000px" height="200px" viewBox="0 0 1000 200" version="1.1" xmlns="http://www.w3.org/2000/svg" xmlns:xlink="http://www.w3.org/1999/xlink">
    <title>Artboard</title>
    <g id="Artboard" stroke="none" stroke-width="1" fill="none" fill-rule="evenodd">
        <path d="M309.56,123.296 C313.352,123.296 316.484,122.636 318.956,121.316 C321.428,119.996 323.384,118.328 324.824,116.312 C326.264,114.296 327.26,112.1 327.812,109.724 C328.364,107.348 328.64,105.104 328.64,102.992 L328.64,102.992 L328.64,71.024 L323.456,71.024 L323.456,102.416 C323.456,104.48 323.216,106.484 322.736,108.428 C322.256,110.372 321.476,112.1 320.396,113.612 C319.316,115.124 317.888,116.348 316.112,117.284 C314.336,118.22 312.152,118.688 309.56,118.688 C306.968,118.688 304.784,118.22 303.008,117.284 C301.232,116.348 299.804,115.124 298.724,113.612 C297.644,112.1 296.864,110.372 296.384,108.428 C295.904,106.484 295.664,104.48 295.664,102.416 L295.664,102.416 L295.664,71.024 L290.48,71.024 L290.48,102.992 C290.48,105.104 290.756,107.348 291.308,109.724 C291.86,112.1 292.856,114.296 294.296,116.312 C295.736,118.328 297.68,119.996 300.128,121.316 C302.576,122.636 305.72,123.296 309.56,123.296 Z M347.072,122 L347.072,78.152 L347.216,78.152 L376.88,122 L383.36,122 L383.36,71.024 L378.176,71.024 L378.176,114.44 L378.032,114.44 L348.368,71.024 L341.888,71.024 L341.888,122 L347.072,122 Z M402.08,122 L402.08,71.024 L396.896,71.024 L396.896,122 L402.08,122 Z M433.976,122 L453.488,71.024 L447.944,71.024 L431.384,115.304 L431.24,115.304 L414.68,71.024 L409.064,71.024 L428.504,122 L433.976,122 Z M492.944,122 L492.944,117.392 L465.656,117.392 L465.656,97.736 L490.352,97.736 L490.352,93.2 L465.656,93.2 L465.656,75.632 L492.08,75.632 L492.08,71.024 L460.472,71.024 L460.472,122 L492.944,122 Z M508.28,122 L508.28,98.168 L516.92,98.168 L531.032,122 L537.368,122 L522.464,97.736 C524.336,97.544 526.064,97.112 527.648,96.44 C529.232,95.768 530.6,94.868 531.752,93.74 C532.904,92.612 533.816,91.28 534.488,89.744 C535.16,88.208 535.496,86.504 535.496,84.632 C535.496,82.136 535.064,80.024 534.2,78.296 C533.336,76.568 532.124,75.164 530.564,74.084 C529.004,73.004 527.156,72.224 525.02,71.744 C522.884,71.264 520.568,71.024 518.072,71.024 L518.072,71.024 L503.096,71.024 L503.096,122 L508.28,122 Z M517.28,93.704 L508.28,93.704 L508.28,75.488 L517.496,75.488 C519.416,75.488 521.168,75.656 522.752,75.992 C524.336,76.328 525.68,76.856 526.784,77.576 C527.888,78.296 528.752,79.232 529.376,80.384 C530,81.536 530.312,82.952 530.312,84.632 C530.312,87.656 529.184,89.924 526.928,91.436 C524.672,92.948 521.456,93.704 517.28,93.704 L517.28,93.704 Z M559.112,123.296 C561.128,123.296 563.132,123.008 565.124,122.432 C567.116,121.856 568.892,120.968 570.452,119.768 C572.012,118.568 573.284,117.044 574.268,115.196 C575.252,113.348 575.744,111.152 575.744,108.608 C575.744,106.064 575.288,103.964 574.376,102.308 C573.464,100.652 572.288,99.284 570.848,98.204 C569.408,97.124 567.788,96.248 565.988,95.576 C564.188,94.904 562.4,94.28 560.624,93.704 C559.184,93.224 557.804,92.744 556.484,92.264 C555.164,91.784 553.988,91.172 552.956,90.428 C551.924,89.684 551.096,88.784 550.472,87.728 C549.848,86.672 549.536,85.328 549.536,83.696 C549.536,82.064 549.86,80.648 550.508,79.448 C551.156,78.248 552.008,77.252 553.064,76.46 C554.12,75.668 555.296,75.08 556.592,74.696 C557.888,74.312 559.16,74.12 560.408,74.12 C562.856,74.12 564.944,74.588 566.672,75.524 C568.4,76.46 569.816,77.696 570.92,79.232 L570.92,79.232 L575.024,75.92 C573.776,74.24 571.928,72.788 569.48,71.564 C567.032,70.34 564.08,69.728 560.624,69.728 C558.752,69.728 556.856,69.992 554.936,70.52 C553.016,71.048 551.264,71.888 549.68,73.04 C548.096,74.192 546.812,75.656 545.828,77.432 C544.844,79.208 544.352,81.32 544.352,83.768 C544.352,86.072 544.748,88.016 545.54,89.6 C546.332,91.184 547.376,92.516 548.672,93.596 C549.968,94.676 551.432,95.552 553.064,96.224 C554.696,96.896 556.352,97.496 558.032,98.024 C559.664,98.552 561.224,99.08 562.712,99.608 C564.2,100.136 565.52,100.796 566.672,101.588 C567.824,102.38 568.748,103.364 569.444,104.54 C570.14,105.716 570.488,107.192 570.488,108.968 C570.488,110.6 570.14,112.028 569.444,113.252 C568.748,114.476 567.86,115.508 566.78,116.348 C565.7,117.188 564.488,117.812 563.144,118.22 C561.8,118.628 560.48,118.832 559.184,118.832 C556.496,118.832 554.156,118.22 552.164,116.996 C550.172,115.772 548.624,114.248 547.52,112.424 L547.52,112.424 L543.056,115.736 C543.968,116.984 545.024,118.088 546.224,119.048 C547.424,120.008 548.72,120.8 550.112,121.424 C551.504,122.048 552.968,122.516 554.504,122.828 C556.04,123.14 557.576,123.296 559.112,123.296 Z M610.664,123.296 C614.456,123.296 617.972,122.624 621.212,121.28 C624.452,119.936 627.26,118.076 629.636,115.7 C632.012,113.324 633.872,110.504 635.216,107.24 C636.56,103.976 637.232,100.4 637.232,96.512 C637.232,92.624 636.56,89.048 635.216,85.784 C633.872,82.52 632.012,79.7 629.636,77.324 C627.26,74.948 624.452,73.088 621.212,71.744 C617.972,70.4 614.456,69.728 610.664,69.728 C606.872,69.728 603.356,70.4 600.116,71.744 C596.876,73.088 594.068,74.948 591.692,77.324 C589.316,79.7 587.456,82.52 586.112,85.784 C584.768,89.048 584.096,92.624 584.096,96.512 C584.096,100.4 584.768,103.976 586.112,107.24 C587.456,110.504 589.316,113.324 591.692,115.7 C594.068,118.076 596.876,119.936 600.116,121.28 C603.356,122.624 606.872,123.296 610.664,123.296 Z M610.664,118.688 C607.4,118.688 604.46,118.088 601.844,116.888 C599.228,115.688 597.008,114.08 595.184,112.064 C593.36,110.048 591.968,107.696 591.008,105.008 C590.048,102.32 589.568,99.488 589.568,96.512 C589.568,93.536 590.048,90.704 591.008,88.016 C591.968,85.328 593.36,82.964 595.184,80.924 C597.008,78.884 599.228,77.264 601.844,76.064 C604.46,74.864 607.4,74.264 610.664,74.264 C613.928,74.264 616.868,74.864 619.484,76.064 C622.1,77.264 624.32,78.884 626.144,80.924 C627.968,82.964 629.36,85.328 630.32,88.016 C631.28,90.704 631.76,93.536 631.76,96.512 C631.76,99.488 631.28,102.32 630.32,105.008 C629.36,107.696 627.968,110.048 626.144,112.064 C624.32,114.08 622.1,115.688 619.484,116.888 C616.868,118.088 613.928,118.688 610.664,118.688 Z M689.864,123.296 C693.32,123.296 696.656,122.888 699.872,122.072 C703.088,121.256 706.088,120.008 708.872,118.328 L708.872,118.328 L708.872,95.36 L691.808,95.36 L691.808,99.896 L703.688,99.896 L703.688,115.376 C702.2,116.336 700.256,117.128 697.856,117.752 C695.456,118.376 692.816,118.688 689.936,118.688 C686.672,118.688 683.732,118.088 681.116,116.888 C678.5,115.688 676.28,114.08 674.456,112.064 C672.632,110.048 671.228,107.696 670.244,105.008 C669.26,102.32 668.768,99.488 668.768,96.512 C668.768,93.536 669.26,90.704 670.244,88.016 C671.228,85.328 672.632,82.964 674.456,80.924 C676.28,78.884 678.5,77.264 681.116,76.064 C683.732,74.864 686.672,74.264 689.936,74.264 C693.104,74.264 695.912,74.78 698.36,75.812 C700.808,76.844 702.92,78.296 704.696,80.168 L704.696,80.168 L708.296,76.568 C706.136,74.408 703.544,72.728 700.52,71.528 C697.496,70.328 693.944,69.728 689.864,69.728 C686.072,69.728 682.556,70.4 679.316,71.744 C676.076,73.088 673.268,74.948 670.892,77.324 C668.516,79.7 666.656,82.52 665.312,85.784 C663.968,89.048 663.296,92.624 663.296,96.512 C663.296,100.4 663.956,103.976 665.276,107.24 C666.596,110.504 668.432,113.324 670.784,115.7 C673.136,118.076 675.944,119.936 679.208,121.28 C682.472,122.624 686.024,123.296 689.864,123.296 Z M721.76,122 L727.304,108.608 L753.656,108.608 L759.272,122 L765.032,122 L743.144,71.024 L738.104,71.024 L716.072,122 L721.76,122 Z M751.712,103.856 L729.248,103.856 L740.48,76.784 L751.712,103.856 Z M777.704,122 L777.704,77.72 L777.848,77.72 L796.28,122 L799.016,122 L817.448,77.72 L817.592,77.72 L817.592,122 L822.776,122 L822.776,71.024 L814.856,71.024 L797.792,113.216 L797.72,113.216 L780.44,71.024 L772.52,71.024 L772.52,122 L777.704,122 Z M868.784,122 L868.784,117.392 L841.496,117.392 L841.496,97.736 L866.192,97.736 L866.192,93.2 L841.496,93.2 L841.496,75.632 L867.92,75.632 L867.92,71.024 L836.312,71.024 L836.312,122 L868.784,122 Z M891.824,123.296 C893.84,123.296 895.844,123.008 897.836,122.432 C899.828,121.856 901.604,120.968 903.164,119.768 C904.724,118.568 905.996,117.044 906.98,115.196 C907.964,113.348 908.456,111.152 908.456,108.608 C908.456,106.064 908,103.964 907.088,102.308 C906.176,100.652 905,99.284 903.56,98.204 C902.12,97.124 900.5,96.248 898.7,95.576 C896.9,94.904 895.112,94.28 893.336,93.704 C891.896,93.224 890.516,92.744 889.196,92.264 C887.876,91.784 886.7,91.172 885.668,90.428 C884.636,89.684 883.808,88.784 883.184,87.728 C882.56,86.672 882.248,85.328 882.248,83.696 C882.248,82.064 882.572,80.648 883.22,79.448 C883.868,78.248 884.72,77.252 885.776,76.46 C886.832,75.668 888.008,75.08 889.304,74.696 C890.6,74.312 891.872,74.12 893.12,74.12 C895.568,74.12 897.656,74.588 899.384,75.524 C901.112,76.46 902.528,77.696 903.632,79.232 L903.632,79.232 L907.736,75.92 C906.488,74.24 904.64,72.788 902.192,71.564 C899.744,70.34 896.792,69.728 893.336,69.728 C891.464,69.728 889.568,69.992 887.648,70.52 C885.728,71.048 883.976,71.888 882.392,73.04 C880.808,74.192 879.524,75.656 878.54,77.432 C877.556,79.208 877.064,81.32 877.064,83.768 C877.064,86.072 877.46,88.016 878.252,89.6 C879.044,91.184 880.088,92.516 881.384,93.596 C882.68,94.676 884.144,95.552 885.776,96.224 C887.408,96.896 889.064,97.496 890.744,98.024 C892.376,98.552 893.936,99.08 895.424,99.608 C896.912,100.136 898.232,100.796 899.384,101.588 C900.536,102.38 901.46,103.364 902.156,104.54 C902.852,105.716 903.2,107.192 903.2,108.968 C903.2,110.6 902.852,112.028 902.156,113.252 C901.46,114.476 900.572,115.508 899.492,116.348 C898.412,117.188 897.2,117.812 895.856,118.22 C894.512,118.628 893.192,118.832 891.896,118.832 C889.208,118.832 886.868,118.22 884.876,116.996 C882.884,115.772 881.336,114.248 880.232,112.424 L880.232,112.424 L875.768,115.736 C876.68,116.984 877.736,118.088 878.936,119.048 C880.136,120.008 881.432,120.8 882.824,121.424 C884.216,122.048 885.68,122.516 887.216,122.828 C888.752,123.14 890.288,123.296 891.824,123.296 Z" id="UNIVERSOGAMES" fill="#4A4A4A" fill-rule="nonzero"></path>
        <polygon id="Star" stroke="#979797" fill="#D8D8D8" points="137.5 141.25 88.4199314 167.052919 97.7933904 112.40146 58.0867809 73.697081 112.959966 65.7235405 137.5 16 162.040034 65.7235405 216.913219 73.697081 177.20661 112.40146 186.580069 167.052919"></polygon>
    </g>
</svg>