<svg xmlns="http://www.w3.org/2000/svg" xmlns:xlink="http://www.w3.org/1999/xlink" width="512" height="512" viewBox="0 0 512 512">
  <defs>
    <path id="icon-b" d="M237.818182,364.535904 L237.818182,402.181818 L165.090909,402.181818 L165.090909,364.535904 L237.818182,364.535904 Z M346.909091,364.535904 L346.909091,402.181818 L274.181818,402.181818 L274.181818,364.535904 L346.909091,364.535904 Z M256.001,253.879 L256,182.010258 L257.137,182.01 L257.136364,180.869473 L310.546,180.869 L310.545455,145.505129 L346.91,145.505 L346.909091,109 L383.272727,109 L383.272727,146.645914 L348.046,146.645 L348.046,180.869 L384.409091,180.869473 L384.409091,218.515387 L383.273,218.515 L383.273,219.656 L420.772727,219.656173 L420.773,253.879 L456,253.879731 L456,363.395119 L419.636364,363.395119 L419.637,328.03 L383.273,328.03 L383.272727,364.535904 L346.909091,364.535904 L346.91,328.03 L165.09,328.03 L165.090909,364.535904 L128.727273,364.535904 L128.727,328.03 L92.363,328.03 L92.3636364,363.395119 L56,363.395119 L56,253.879731 L91.227,253.879 L91.2272727,219.656173 L128.727,219.656 L128.727,218.515 L127.590909,218.515387 L127.590909,180.869473 L163.954,180.869 L163.954,146.645 L128.727273,146.645914 L128.727273,109 L165.090909,109 L165.09,145.505 L201.454545,145.505129 L201.454,180.869 L254.863636,180.869473 L254.863,182.01 L256,182.010258 L255.999,253.879 L256.001,253.879 Z M201.454545,219.656173 L165.09,219.656 L165.09,253.879 L201.454,253.879 L201.454545,219.656173 Z M346.91,219.656 L310.545455,219.656173 L310.546,253.879 L346.91,253.879 L346.91,219.656 Z"/>
    <filter id="icon-a" width="145.8%" height="162.4%" x="-22.9%" y="-31.2%" filterUnits="objectBoundingBox">
      <feMorphology in="SourceAlpha" operator="dilate" radius="5.5" result="shadowSpreadOuter1"/>
      <feOffset in="shadowSpreadOuter1" result="shadowOffsetOuter1"/>
      <feGaussianBlur in="shadowOffsetOuter1" result="shadowBlurOuter1" stdDeviation="25"/>
      <feColorMatrix in="shadowBlurOuter1" values="0 0 0 0 0   0 0 0 0 0.584313725   0 0 0 0 1  0 0 0 1 0"/>
    </filter>
  </defs>
  <g fill="none" fill-rule="evenodd">
    <rect width="512" height="512" fill="#0D0118"/>
    <g fill-rule="nonzero">
      <use fill="#000" filter="url(#icon-a)" xlink:href="#icon-b"/>
      <use fill="#CEF3F1" xlink:href="#icon-b"/>
    </g>
  </g>
</svg>
